<?xml version="1.0" encoding="utf-8"?>
<!-- Generator: Adobe Illustrator 21.1.0, SVG Export Plug-In . SVG Version: 6.00 Build 0)  -->
<svg version="1.1" id="Слой_1" xmlns="http://www.w3.org/2000/svg" xmlns:xlink="http://www.w3.org/1999/xlink" x="0px" y="0px"
	 width="68px" height="20px" viewBox="0 0 68 20" style="enable-background:new 0 0 68 20;" xml:space="preserve">
<style type="text/css">
	.st0{fill:#4885C5;}
	.st1{fill:#FFFFFF;}
</style>
<g>
	<rect class="st0" width="42" height="20"/>
</g>
<g>
	<g>
		<path class="st1" d="M8.067,9.391C8.553,9.243,8.879,9.03,9.044,8.754c0.165-0.277,0.248-0.767,0.248-1.469
			c0-1.038-0.117-1.791-0.351-2.258C8.707,4.559,8.4,4.249,8.02,4.096c-0.38-0.153-0.94-0.23-1.678-0.23H4.003v12.016h2.711
			c0.943,0,1.566-0.072,1.87-0.215c0.304-0.144,0.526-0.411,0.665-0.802c0.139-0.391,0.209-0.992,0.209-1.805v-1.114
			c0-0.782-0.096-1.363-0.289-1.742C8.976,9.826,8.609,9.555,8.067,9.391z M7.115,12.705c0,0.485-0.046,0.789-0.136,0.913
			c-0.091,0.124-0.302,0.193-0.632,0.208v-3.362c0.349,0.015,0.564,0.077,0.646,0.186c0.082,0.109,0.122,0.421,0.122,0.935V12.705z
			 M7.02,8.36c-0.063,0.151-0.21,0.226-0.44,0.226c-0.056,0-0.134,0.003-0.234,0.007V5.922C6.588,5.927,6.75,5.949,6.834,5.988
			c0.083,0.04,0.151,0.135,0.203,0.286c0.052,0.151,0.078,0.414,0.078,0.79C7.115,7.777,7.083,8.209,7.02,8.36z M13.386,12.72
			c0,0.599-0.021,0.979-0.064,1.139c-0.043,0.161-0.138,0.241-0.287,0.241c-0.13,0-0.216-0.073-0.259-0.219
			c-0.043-0.146-0.064-0.481-0.064-1.006v-9.01h-2.343v7.11c0,1.356,0.018,2.245,0.056,2.668c0.037,0.423,0.158,0.825,0.362,1.206
			c0.204,0.381,0.512,0.69,0.924,0.928c0.412,0.237,0.887,0.356,1.425,0.356c0.486,0,0.908-0.1,1.266-0.301
			c0.358-0.2,0.647-0.495,0.866-0.883c0.219-0.388,0.351-0.767,0.395-1.136c0.044-0.368,0.067-1.008,0.067-1.918V3.866h-2.343V12.72
			z M20.852,9.391c0.486-0.148,0.812-0.361,0.977-0.638c0.165-0.277,0.248-0.767,0.248-1.469c0-1.038-0.117-1.791-0.351-2.258
			c-0.234-0.467-0.541-0.777-0.921-0.931c-0.38-0.153-0.94-0.23-1.678-0.23h-2.338v12.016h2.711c0.943,0,1.566-0.072,1.87-0.215
			c0.304-0.144,0.526-0.411,0.665-0.802c0.139-0.391,0.209-0.992,0.209-1.805v-1.114c0-0.782-0.096-1.363-0.289-1.742
			C21.761,9.826,21.394,9.555,20.852,9.391z M19.9,12.705c0,0.485-0.046,0.789-0.136,0.913c-0.091,0.124-0.302,0.193-0.632,0.208
			v-3.362c0.349,0.015,0.564,0.077,0.646,0.186c0.082,0.109,0.122,0.421,0.122,0.935V12.705z M19.805,8.36
			c-0.063,0.151-0.21,0.226-0.44,0.226c-0.056,0-0.134,0.003-0.234,0.007V5.922c0.241,0.005,0.404,0.027,0.487,0.067
			c0.083,0.04,0.151,0.135,0.203,0.286c0.052,0.151,0.078,0.414,0.078,0.79C19.9,7.777,19.869,8.209,19.805,8.36z M27.234,9.391
			c0.486-0.148,0.812-0.361,0.977-0.638c0.165-0.277,0.248-0.767,0.248-1.469c0-1.038-0.117-1.791-0.351-2.258
			c-0.234-0.467-0.541-0.777-0.921-0.931c-0.38-0.153-0.94-0.23-1.678-0.23H23.17v12.016h2.711c0.943,0,1.566-0.072,1.87-0.215
			c0.304-0.144,0.526-0.411,0.665-0.802c0.139-0.391,0.209-0.992,0.209-1.805v-1.114c0-0.782-0.096-1.363-0.289-1.742
			C28.143,9.826,27.776,9.555,27.234,9.391z M26.282,12.705c0,0.485-0.046,0.789-0.136,0.913c-0.091,0.124-0.302,0.193-0.632,0.208
			v-3.362c0.349,0.015,0.564,0.077,0.646,0.186c0.082,0.109,0.122,0.421,0.122,0.935V12.705z M26.187,8.36
			c-0.063,0.151-0.21,0.226-0.44,0.226c-0.056,0-0.134,0.003-0.234,0.007V5.922c0.241,0.005,0.404,0.027,0.487,0.067
			c0.083,0.04,0.151,0.135,0.203,0.286c0.052,0.151,0.078,0.414,0.078,0.79C26.282,7.777,26.25,8.209,26.187,8.36z M31.895,3.866
			h-2.343v12.016h3.768v-2.405h-1.425V3.866z M36.276,13.477v-2.642h1.464V8.549h-1.464V6.271h1.564V3.866h-3.908v12.016h4.064
			v-2.405H36.276z"/>
	</g>
</g>
<g>
	<g>
		<path class="st0" d="M49.774,4.147c-0.449-0.356-1.019-0.534-1.709-0.534c-0.508,0-0.958,0.115-1.35,0.345
			c-0.392,0.23-0.698,0.545-0.918,0.946c-0.221,0.401-0.353,0.818-0.398,1.25c-0.044,0.433-0.067,1.083-0.067,1.948v3.51
			c0,1.178,0.072,2.06,0.217,2.646c0.145,0.586,0.44,1.045,0.885,1.377s1.011,0.497,1.698,0.497c0.661,0,1.216-0.196,1.667-0.587
			c0.451-0.391,0.742-0.847,0.874-1.368c0.132-0.52,0.198-1.402,0.198-2.646v-0.468h-2.344v1.51c0,0.66-0.027,1.079-0.081,1.257
			c-0.054,0.179-0.168,0.268-0.342,0.268c-0.182,0-0.299-0.089-0.351-0.267c-0.052-0.178-0.078-0.559-0.078-1.143V7.109
			c0-0.609,0.026-1.004,0.078-1.188c0.052-0.183,0.174-0.275,0.367-0.275c0.171,0,0.281,0.075,0.331,0.226
			c0.05,0.151,0.075,0.53,0.075,1.137v2.088h2.344V7.957c0-1.122-0.07-1.948-0.211-2.479C50.519,4.946,50.224,4.503,49.774,4.147z
			 M54.121,3.866h-2.344v12.016h3.768v-2.405h-1.425V3.866z M59.142,12.72c0,0.599-0.021,0.979-0.064,1.139
			c-0.043,0.161-0.138,0.241-0.287,0.241c-0.13,0-0.216-0.073-0.259-0.219c-0.043-0.146-0.064-0.481-0.064-1.006v-9.01h-2.344v7.11
			c0,1.356,0.019,2.245,0.056,2.668c0.037,0.423,0.158,0.825,0.362,1.206s0.512,0.69,0.924,0.928
			c0.412,0.237,0.887,0.356,1.425,0.356c0.486,0,0.908-0.1,1.266-0.301c0.358-0.2,0.647-0.495,0.866-0.883
			c0.219-0.388,0.351-0.767,0.395-1.136c0.044-0.369,0.067-1.008,0.067-1.919V3.866h-2.343V12.72z M67.711,10.204
			c-0.193-0.379-0.56-0.65-1.102-0.813c0.486-0.148,0.812-0.361,0.977-0.638c0.165-0.277,0.248-0.766,0.248-1.469
			c0-1.038-0.117-1.791-0.351-2.259c-0.234-0.467-0.541-0.777-0.921-0.931c-0.38-0.153-0.94-0.23-1.678-0.23h-2.338v12.016h2.711
			c0.943,0,1.566-0.072,1.87-0.215c0.304-0.144,0.526-0.411,0.665-0.802C67.93,14.473,68,13.872,68,13.06v-1.114
			C68,11.164,67.903,10.583,67.711,10.204z M65.657,12.705c0,0.485-0.046,0.789-0.136,0.913c-0.091,0.124-0.302,0.193-0.632,0.208
			v-3.362c0.349,0.015,0.564,0.077,0.646,0.186c0.082,0.109,0.122,0.421,0.122,0.935V12.705z M65.562,8.36
			c-0.063,0.151-0.21,0.226-0.44,0.226c-0.056,0-0.134,0.003-0.234,0.007V5.922c0.241,0.005,0.404,0.027,0.487,0.067
			s0.151,0.135,0.203,0.286c0.052,0.151,0.078,0.414,0.078,0.79C65.657,7.777,65.625,8.209,65.562,8.36z"/>
	</g>
</g>
</svg>
