<?xml version="1.0" encoding="utf-8"?>
<!-- Generator: Adobe Illustrator 21.1.0, SVG Export Plug-In . SVG Version: 6.00 Build 0)  -->
<svg version="1.1" id="Слой_1" xmlns="http://www.w3.org/2000/svg" xmlns:xlink="http://www.w3.org/1999/xlink" x="0px" y="0px"
	 width="84px" height="20px" viewBox="0 0 84 20" style="enable-background:new 0 0 84 20;" xml:space="preserve">
<style type="text/css">
	.st0{fill:#4885C5;}
	.st1{fill:#FFFFFF;}
</style>
<g>
	<rect class="st0" width="51.265" height="20"/>
</g>
<g>
	<g>
		<path class="st1" d="M9.846,9.391c0.593-0.148,0.991-0.361,1.193-0.637c0.201-0.277,0.303-0.767,0.303-1.469
			c0-1.038-0.143-1.791-0.428-2.258c-0.286-0.468-0.66-0.778-1.124-0.931s-1.147-0.23-2.048-0.23H4.886v12.016h3.309
			c1.151,0,1.911-0.072,2.282-0.215c0.371-0.144,0.642-0.411,0.812-0.802s0.255-0.992,0.255-1.805v-1.114
			c0-0.782-0.117-1.363-0.353-1.742C10.956,9.826,10.508,9.555,9.846,9.391z M8.684,12.705c0,0.485-0.056,0.789-0.166,0.913
			c-0.111,0.124-0.369,0.193-0.771,0.208v-3.362c0.426,0.015,0.688,0.077,0.788,0.186s0.149,0.421,0.149,0.935V12.705z M8.569,8.36
			C8.492,8.511,8.312,8.586,8.031,8.586c-0.068,0-0.164,0.003-0.286,0.007V5.922C8.04,5.927,8.238,5.949,8.341,5.988
			c0.101,0.04,0.184,0.135,0.248,0.286c0.063,0.151,0.095,0.414,0.095,0.79C8.684,7.777,8.645,8.209,8.569,8.36z M16.339,12.72
			c0,0.599-0.026,0.979-0.078,1.139c-0.052,0.161-0.168,0.241-0.35,0.241c-0.159,0-0.264-0.073-0.316-0.219
			s-0.078-0.481-0.078-1.006v-9.01h-2.86v7.11c0,1.356,0.022,2.245,0.068,2.668c0.045,0.423,0.193,0.825,0.442,1.206
			c0.249,0.381,0.625,0.69,1.128,0.928c0.503,0.237,1.083,0.356,1.739,0.356c0.593,0,1.108-0.1,1.545-0.301
			c0.437-0.2,0.79-0.495,1.057-0.883c0.267-0.388,0.428-0.767,0.482-1.136c0.054-0.368,0.082-1.008,0.082-1.918V3.866h-2.86v8.854
			H16.339z M25.452,9.391c0.593-0.148,0.991-0.361,1.193-0.638c0.201-0.277,0.303-0.767,0.303-1.469
			c0-1.038-0.143-1.791-0.428-2.258s-0.66-0.777-1.124-0.931c-0.464-0.153-1.147-0.23-2.048-0.23h-2.854v12.016h3.309
			c1.151,0,1.911-0.072,2.283-0.215c0.371-0.144,0.642-0.411,0.812-0.802s0.255-0.992,0.255-1.805v-1.114
			c0-0.782-0.117-1.363-0.353-1.742C26.561,9.826,26.113,9.555,25.452,9.391z M24.29,12.705c0,0.485-0.056,0.789-0.166,0.913
			c-0.111,0.124-0.369,0.193-0.771,0.208v-3.362c0.426,0.015,0.688,0.077,0.788,0.186s0.149,0.421,0.149,0.935V12.705z M24.174,8.36
			c-0.077,0.151-0.256,0.226-0.537,0.226c-0.068,0-0.164,0.003-0.286,0.007V5.922c0.294,0.005,0.493,0.027,0.594,0.067
			s0.184,0.135,0.248,0.286c0.063,0.151,0.095,0.414,0.095,0.79C24.29,7.777,24.252,8.209,24.174,8.36z M33.242,9.391
			c0.593-0.148,0.991-0.361,1.193-0.638c0.201-0.277,0.303-0.767,0.303-1.469c0-1.038-0.143-1.791-0.428-2.258
			c-0.286-0.467-0.66-0.777-1.124-0.931c-0.464-0.153-1.147-0.23-2.048-0.23h-2.855v12.016h3.309c1.151,0,1.911-0.072,2.283-0.215
			c0.371-0.144,0.642-0.411,0.812-0.802c0.17-0.391,0.255-0.992,0.255-1.805v-1.114c0-0.782-0.117-1.363-0.353-1.742
			C34.351,9.826,33.903,9.555,33.242,9.391z M32.079,12.705c0,0.485-0.056,0.789-0.166,0.913c-0.111,0.124-0.369,0.193-0.771,0.208
			v-3.362c0.426,0.015,0.688,0.077,0.788,0.186s0.149,0.421,0.149,0.935V12.705z M31.964,8.36c-0.077,0.151-0.256,0.226-0.537,0.226
			c-0.068,0-0.164,0.003-0.286,0.007V5.922c0.294,0.005,0.493,0.027,0.594,0.067s0.184,0.135,0.248,0.286
			c0.063,0.151,0.095,0.414,0.095,0.79C32.079,7.777,32.04,8.209,31.964,8.36z M38.931,3.866h-2.86v12.016h4.599v-2.405h-1.739
			V3.866z M44.278,13.477v-2.642h1.787V8.549h-1.787V6.271h1.909V3.866h-4.77v12.016h4.96v-2.405H44.278z"/>
	</g>
</g>
<g>
	<g>
		<path class="st0" d="M60.754,4.147c-0.548-0.356-1.244-0.534-2.086-0.534c-0.62,0-1.169,0.115-1.648,0.345
			c-0.478,0.23-0.852,0.545-1.12,0.946c-0.27,0.401-0.431,0.818-0.486,1.25c-0.054,0.433-0.082,1.083-0.082,1.948v3.51
			c0,1.178,0.088,2.06,0.265,2.646s0.537,1.045,1.08,1.377c0.543,0.332,1.234,0.497,2.073,0.497c0.807,0,1.484-0.196,2.035-0.587
			c0.55-0.391,0.906-0.847,1.067-1.368c0.161-0.52,0.242-1.402,0.242-2.646v-0.468h-2.861v1.51c0,0.66-0.033,1.079-0.099,1.257
			c-0.066,0.179-0.205,0.268-0.417,0.268c-0.222,0-0.365-0.089-0.428-0.267s-0.095-0.559-0.095-1.143V7.109
			c0-0.609,0.032-1.004,0.095-1.188c0.063-0.183,0.212-0.275,0.448-0.275c0.209,0,0.343,0.075,0.404,0.226s0.092,0.53,0.092,1.137
			v2.088h2.861v-1.14c0-1.122-0.085-1.948-0.258-2.479C61.663,4.946,61.303,4.503,60.754,4.147z M66.059,3.866h-2.861v12.016h4.599
			v-2.405h-1.739L66.059,3.866L66.059,3.866z M72.188,12.72c0,0.599-0.026,0.979-0.078,1.139c-0.052,0.161-0.168,0.241-0.35,0.241
			c-0.159,0-0.264-0.073-0.316-0.219s-0.078-0.481-0.078-1.006v-9.01h-2.861v7.11c0,1.356,0.023,2.245,0.068,2.668
			s0.193,0.825,0.442,1.206c0.249,0.381,0.625,0.69,1.128,0.928c0.503,0.237,1.083,0.356,1.739,0.356c0.593,0,1.108-0.1,1.545-0.301
			c0.437-0.2,0.79-0.495,1.057-0.883s0.428-0.767,0.482-1.136c0.054-0.369,0.082-1.008,0.082-1.919V3.866h-2.86
			C72.188,3.866,72.188,12.72,72.188,12.72z M82.647,10.204c-0.236-0.379-0.684-0.65-1.345-0.813
			c0.593-0.148,0.991-0.361,1.193-0.638s0.303-0.766,0.303-1.469c0-1.038-0.143-1.791-0.428-2.259
			c-0.286-0.467-0.66-0.777-1.124-0.931c-0.464-0.153-1.147-0.23-2.048-0.23h-2.854V15.88h3.309c1.151,0,1.911-0.072,2.283-0.215
			c0.371-0.144,0.642-0.411,0.812-0.802C82.915,14.473,83,13.872,83,13.06v-1.114C83,11.164,82.882,10.583,82.647,10.204z
			 M80.14,12.705c0,0.485-0.056,0.789-0.166,0.913c-0.111,0.124-0.369,0.193-0.771,0.208v-3.362
			c0.426,0.015,0.688,0.077,0.788,0.186s0.149,0.421,0.149,0.935V12.705z M80.024,8.36c-0.077,0.151-0.256,0.226-0.537,0.226
			c-0.068,0-0.164,0.003-0.286,0.007V5.922c0.294,0.005,0.493,0.027,0.594,0.067c0.101,0.04,0.184,0.135,0.248,0.286
			c0.063,0.151,0.095,0.414,0.095,0.79C80.14,7.777,80.101,8.209,80.024,8.36z"/>
	</g>
</g>
</svg>
