<svg xmlns="http://www.w3.org/2000/svg" width="82.5" height="72" viewBox="0 0 82.5 72">
  <metadata><?xpacket begin="﻿" id="W5M0MpCehiHzreSzNTczkc9d"?>
<x:xmpmeta xmlns:x="adobe:ns:meta/" x:xmptk="Adobe XMP Core 5.6-c138 79.159824, 2016/09/14-01:09:01        ">
   <rdf:RDF xmlns:rdf="http://www.w3.org/1999/02/22-rdf-syntax-ns#">
      <rdf:Description rdf:about=""/>
   </rdf:RDF>
</x:xmpmeta>
                                                                                                    
                                                                                                    
                                                                                                    
                                                                                                    
                                                                                                    
                                                                                                    
                                                                                                    
                                                                                                    
                                                                                                    
                                                                                                    
                                                                                                    
                                                                                                    
                                                                                                    
                                                                                                    
                                                                                                    
                                                                                                    
                                                                                                    
                                                                                                    
                                                                                                    
                                                                                                    
                           
<?xpacket end="w"?></metadata>
<defs>
    <style>
      .cls-1 {
        fill: #1a1a1a;
        fill-rule: evenodd;
      }
    </style>
  </defs>
  <path class="cls-1" d="M588.186,2095.56a1.225,1.225,0,0,1-.87-0.33,1.631,1.631,0,0,1-.761-1.3l-0.327-34.61a1.637,1.637,0,0,1,1.088-1.52l28.381-10.85a1.536,1.536,0,0,1,1.522.22,1.645,1.645,0,0,1,.761,1.3l0.326,34.61a1.638,1.638,0,0,1-1.087,1.52l-28.381,10.85A1.363,1.363,0,0,1,588.186,2095.56Zm1.3-35.15,0.327,31.14,25.118-9.66-0.326-31.03Zm-1.631.54a1.363,1.363,0,0,1-.652-0.11l-24.684-10.96a1.541,1.541,0,0,1-.978-1.52,1.756,1.756,0,0,1,1.087-1.52l27.511-10.63a2.2,2.2,0,0,1,1.2,0l25.554,10.74a1.541,1.541,0,0,1,.978,1.52,1.638,1.638,0,0,1-1.087,1.52L588.4,2060.84A0.808,0.808,0,0,1,587.859,2060.95Zm-20.442-12.48,20.442,9.11,24.032-9.22-21.2-8.89Zm20.442,47.09a1.363,1.363,0,0,1-.652-0.11l-24.9-10.96a1.684,1.684,0,0,1-.979-1.52l0.326-34.61a1.509,1.509,0,0,1,.762-1.3,1.567,1.567,0,0,1,1.522-.11l24.792,10.85a1.707,1.707,0,0,1,.979,1.52l-0.326,34.61a1.483,1.483,0,0,1-.761,1.3A0.844,0.844,0,0,1,587.859,2095.56ZM564.7,2082l21.639,9.44,0.218-31.03-21.639-9.44Zm36.645-27.13a1.363,1.363,0,0,1-.652-0.11l-22.074-10.09a1.512,1.512,0,0,1-.762-2.17,1.528,1.528,0,0,1,2.175-.76l22.074,10.09a1.516,1.516,0,0,1,.761,2.17A1.857,1.857,0,0,1,601.343,2054.87Zm-22.618-18.88a1.485,1.485,0,0,1-.652-0.1l-19.682-9.23a1.627,1.627,0,1,1,1.414-2.93l19.682,9.22a1.637,1.637,0,0,1,.761,2.18A1.735,1.735,0,0,1,578.725,2035.99Zm-10.874,3.58a1.488,1.488,0,0,1-.652-0.1l-19.682-9.23a1.627,1.627,0,1,1,1.414-2.93l19.682,9.23A1.587,1.587,0,0,1,567.851,2039.57Zm-10.765,3.58a1.485,1.485,0,0,1-.652-0.1l-19.682-9.23a1.627,1.627,0,1,1,1.414-2.93l19.682,9.23a1.622,1.622,0,0,1,.761,2.17A1.874,1.874,0,0,1,557.086,2043.15Zm0,10.85a1.485,1.485,0,0,1-.652-0.1l-19.682-9.23a1.627,1.627,0,1,1,1.414-2.93l19.573,9.12a1.622,1.622,0,0,1,.761,2.17A1.493,1.493,0,0,1,557.086,2054Zm0,10.85a1.485,1.485,0,0,1-.652-0.1l-19.682-9.34a1.622,1.622,0,1,1,1.414-2.92l19.573,9.22a1.622,1.622,0,0,1,.761,2.17A1.493,1.493,0,0,1,557.086,2064.85Z" transform="translate(-535.813 -2023.56)"/>
</svg>
