<svg xmlns="http://www.w3.org/2000/svg" width="60.843" height="52.78" viewBox="0 0 60.843 52.78">
  <metadata><?xpacket begin="﻿" id="W5M0MpCehiHzreSzNTczkc9d"?>
<x:xmpmeta xmlns:x="adobe:ns:meta/" x:xmptk="Adobe XMP Core 5.6-c138 79.159824, 2016/09/14-01:09:01        ">
   <rdf:RDF xmlns:rdf="http://www.w3.org/1999/02/22-rdf-syntax-ns#">
      <rdf:Description rdf:about=""/>
   </rdf:RDF>
</x:xmpmeta>
                                                                                                    
                                                                                                    
                                                                                                    
                                                                                                    
                                                                                                    
                                                                                                    
                                                                                                    
                                                                                                    
                                                                                                    
                                                                                                    
                                                                                                    
                                                                                                    
                                                                                                    
                                                                                                    
                                                                                                    
                                                                                                    
                                                                                                    
                                                                                                    
                                                                                                    
                                                                                                    
                           
<?xpacket end="w"?></metadata>
<defs>
    <style>
      .cls-1 {
        fill: #121212;
        fill-rule: evenodd;
      }
    </style>
  </defs>
  <path class="cls-1" d="M875.912,2066.64v-3.74a9.653,9.653,0,0,0-6.983-9.25v-2.33a8.068,8.068,0,0,0-8.047-8.07h-33.22a8.035,8.035,0,0,0-7.981,8.07v36.65a8.067,8.067,0,0,0,8.046,8.07h38.638a9.568,9.568,0,0,0,9.547-9.57v-3.74a5.054,5.054,0,0,0,4.634-5.1v-5.89A5.125,5.125,0,0,0,875.912,2066.64Zm-52.605,21.33v-36.65a4.42,4.42,0,0,1,4.355-4.37h33.22a4.42,4.42,0,0,1,4.354,4.37v2.01H830.4a0.505,0.505,0,0,1,0-1.01h30.545a1.85,1.85,0,0,0,0-3.7H830.4a4.205,4.205,0,0,0,0,8.41h35.9a5.874,5.874,0,0,1,5.856,5.87v3.72h-6.769a7.085,7.085,0,0,0-7.068,7.08v1.97a7.085,7.085,0,0,0,7.068,7.08h6.834v3.72a5.874,5.874,0,0,1-5.855,5.87h-38.7A4.42,4.42,0,0,1,823.307,2087.97Zm38.7-12.3v-1.97a3.385,3.385,0,0,1,3.376-3.38h10.051a1.387,1.387,0,0,1,1.417,1.42v5.89a1.387,1.387,0,0,1-1.417,1.42H865.386A3.385,3.385,0,0,1,862.01,2075.67Z" transform="translate(-819.688 -2043.25)"/>
</svg>
