<svg xmlns="http://www.w3.org/2000/svg" width="48" height="63" viewBox="0 0 48 63">
  <metadata><?xpacket begin="﻿" id="W5M0MpCehiHzreSzNTczkc9d"?>
<x:xmpmeta xmlns:x="adobe:ns:meta/" x:xmptk="Adobe XMP Core 5.6-c138 79.159824, 2016/09/14-01:09:01        ">
   <rdf:RDF xmlns:rdf="http://www.w3.org/1999/02/22-rdf-syntax-ns#">
      <rdf:Description rdf:about=""/>
   </rdf:RDF>
</x:xmpmeta>
                                                                                                    
                                                                                                    
                                                                                                    
                                                                                                    
                                                                                                    
                                                                                                    
                                                                                                    
                                                                                                    
                                                                                                    
                                                                                                    
                                                                                                    
                                                                                                    
                                                                                                    
                                                                                                    
                                                                                                    
                                                                                                    
                                                                                                    
                                                                                                    
                                                                                                    
                                                                                                    
                           
<?xpacket end="w"?></metadata>
<defs>
    <style>
      .cls-1 {
        fill: #1a1a1a;
        fill-rule: evenodd;
      }
    </style>
  </defs>
  <path class="cls-1" d="M353,2034.82a1.82,1.82,0,0,0-1.811-1.82H314.046c-4.988,0-9.046,4.47-9.046,9.97v43.06c0,5.49,4.058,9.97,9.046,9.97h37.143a1.825,1.825,0,0,0,0-3.65H314.046c-2.991,0-5.424-2.84-5.424-6.32v-2.11c0.033-2.16,2.142-3.91,4.7-3.91h37.865a1.822,1.822,0,0,0,1.811-1.83v-43.36Zm-38.954,1.83h35.332v39.71H313.324a8.9,8.9,0,0,0-4.7,1.33v-34.72C308.622,2039.48,311.055,2036.65,314.046,2036.65Zm37.143,47.38H314.748a1.825,1.825,0,0,0,0,3.65h36.44A1.825,1.825,0,0,0,351.189,2084.03Zm-27.205-24.46a0.86,0.86,0,0,1,.31.96l-2.106,6.53a0.854,0.854,0,0,0,1.314.96l5.513-4.03a0.846,0.846,0,0,1,1,0l5.514,4.03a0.853,0.853,0,0,0,1.313-.96l-2.106-6.53a0.86,0.86,0,0,1,.31-0.96l5.514-4.04a0.864,0.864,0,0,0-.5-1.56h-6.815a0.856,0.856,0,0,1-.812-0.59l-2.106-6.54a0.853,0.853,0,0,0-1.624,0l-2.106,6.54a0.856,0.856,0,0,1-.812.59h-6.815a0.864,0.864,0,0,0-.5,1.56Z" transform="translate(-305 -2033)"/>
</svg>
