<svg xmlns="http://www.w3.org/2000/svg" width="61.94" height="62.18" viewBox="0 0 61.94 62.18">
  <metadata><?xpacket begin="﻿" id="W5M0MpCehiHzreSzNTczkc9d"?>
<x:xmpmeta xmlns:x="adobe:ns:meta/" x:xmptk="Adobe XMP Core 5.6-c138 79.159824, 2016/09/14-01:09:01        ">
   <rdf:RDF xmlns:rdf="http://www.w3.org/1999/02/22-rdf-syntax-ns#">
      <rdf:Description rdf:about=""/>
   </rdf:RDF>
</x:xmpmeta>
                                                                                                    
                                                                                                    
                                                                                                    
                                                                                                    
                                                                                                    
                                                                                                    
                                                                                                    
                                                                                                    
                                                                                                    
                                                                                                    
                                                                                                    
                                                                                                    
                                                                                                    
                                                                                                    
                                                                                                    
                                                                                                    
                                                                                                    
                                                                                                    
                                                                                                    
                                                                                                    
                           
<?xpacket end="w"?></metadata>
<defs>
    <style>
      .cls-1 {
        fill: #1a1a1a;
        fill-rule: evenodd;
      }
    </style>
  </defs>
  <path class="cls-1" d="M1133.24,2067.53a5.871,5.871,0,0,0,0-6.57l-2.33-3.48a2.712,2.712,0,0,1-.27-1.27l0.27-4.22a5.972,5.972,0,0,0-3.27-5.7l-3.74-1.87a1.837,1.837,0,0,1-.87-0.87l-1.87-3.76a5.977,5.977,0,0,0-5.67-3.28l-4.2.27a1.912,1.912,0,0,1-1.2-.34l-3.48-2.27h0a5.822,5.822,0,0,0-6.54,0l-3.47,2.34a3.137,3.137,0,0,1-1.33.27l-4.2-.27a5.935,5.935,0,0,0-5.68,3.28l-1.87,3.76a1.817,1.817,0,0,1-.86.87l-3.74,1.87a6.012,6.012,0,0,0-3.27,5.7l0.27,4.22a1.912,1.912,0,0,1-.34,1.2l-2.27,3.49a5.891,5.891,0,0,0,0,6.56l2.34,3.49a3.181,3.181,0,0,1,.27,1.34l-0.27,4.22a5.941,5.941,0,0,0,3.27,5.69l3.74,1.88a2.117,2.117,0,0,1,.86.87l1.87,3.75a6,6,0,0,0,5.68,3.28l4.2-.27a1.912,1.912,0,0,1,1.2.34l3.47,2.28a5.846,5.846,0,0,0,6.54,0l3.47-2.35a2.512,2.512,0,0,1,1.2-.33l4.21,0.26a5.913,5.913,0,0,0,5.67-3.28l1.87-3.75a1.837,1.837,0,0,1,.87-0.87l3.73-1.88a5.991,5.991,0,0,0,3.27-5.69l-0.13-4.15a1.979,1.979,0,0,1,.33-1.21Zm-3.33-2.21-2.27,3.48a5.793,5.793,0,0,0-1,3.62l0.26,4.22a1.931,1.931,0,0,1-1.07,1.87l-3.73,1.88a6.39,6.39,0,0,0-2.67,2.68l-1.87,3.75a1.828,1.828,0,0,1-1.87,1.07l-4.2-.2a5.837,5.837,0,0,0-3.61,1.01l-3.47,2.28a2.04,2.04,0,0,1-2.13,0l-3.47-2.28a5.88,5.88,0,0,0-3.27-1.01h-0.34l-4.2.27a1.931,1.931,0,0,1-1.87-1.07l-1.87-3.75a6.39,6.39,0,0,0-2.67-2.68l-3.73-1.88a1.828,1.828,0,0,1-1.07-1.87l0.26-4.22a5.776,5.776,0,0,0-1-3.62l-2.27-3.49a2.057,2.057,0,0,1,0-2.14l2.27-3.48a5.793,5.793,0,0,0,1-3.62l-0.26-4.22a1.955,1.955,0,0,1,1.07-1.88l3.73-1.87a6.39,6.39,0,0,0,2.67-2.68l1.87-3.75a1.849,1.849,0,0,1,1.87-1.08l4.2,0.27a5.828,5.828,0,0,0,3.61-1l3.47-2.28a2.04,2.04,0,0,1,2.13,0l3.47,2.28a5.828,5.828,0,0,0,3.61,1l4.2-.27a1.955,1.955,0,0,1,1.87,1.08l1.87,3.75a6.39,6.39,0,0,0,2.67,2.68l3.73,1.87a1.849,1.849,0,0,1,1.07,1.88l-0.26,4.09a5.765,5.765,0,0,0,1,3.61l2.27,3.49A1.941,1.941,0,0,1,1129.91,2065.32Zm-33.37-2.28a6.5,6.5,0,1,0-6.48-6.5A6.408,6.408,0,0,0,1096.54,2063.04Zm0-9.45a2.994,2.994,0,0,1,3,3.02,2.941,2.941,0,0,1-3,2.95,3,3,0,0,1-3.01-3.02A2.95,2.95,0,0,1,1096.54,2053.59Zm13.48,11.86a6.5,6.5,0,1,0,6.47,6.5A6.412,6.412,0,0,0,1110.02,2065.45Zm0,9.45a3.015,3.015,0,1,1,3-3.02A2.994,2.994,0,0,1,1110.02,2074.9Zm5.67-23.11a1.651,1.651,0,0,0-2.47,0l-22.35,22.37a1.662,1.662,0,0,0,0,2.48,1.81,1.81,0,0,0,1.2.54,1.831,1.831,0,0,0,1.2-.54l22.29-22.38A1.781,1.781,0,0,0,1115.69,2051.79Z" transform="translate(-1072.31 -2033.16)"/>
</svg>
