<?xml version="1.0" encoding="utf-8"?>
<!-- Generator: Adobe Illustrator 21.1.0, SVG Export Plug-In . SVG Version: 6.00 Build 0)  -->
<svg version="1.1" id="Слой_1" xmlns="http://www.w3.org/2000/svg" xmlns:xlink="http://www.w3.org/1999/xlink" x="0px" y="0px"
	 viewBox="0 0 84 84" style="enable-background:new 0 0 84 84;" xml:space="preserve">
<style type="text/css">
	.st0{fill:#1A1A1A;}
</style>
<path class="st0" d="M82.483,31.971c0-0.339-0.135-0.63-0.335-0.884c-0.161-0.288-0.406-0.522-0.744-0.635L56.062,19.71
	c-0.323-0.108-0.755-0.108-1.186,0L27.592,30.343c-0.647,0.325-1.078,0.867-1.078,1.519c0,0.2,0.041,0.395,0.102,0.583
	l-0.318,34.029c0,0.651,0.431,1.301,0.971,1.519l24.695,10.959c0.216,0.108,0.431,0.108,0.647,0.108
	c0.073,0,0.146-0.007,0.217-0.018c0.036,0.003,0.07,0.018,0.107,0.018c0.216,0,0.431,0,0.647-0.108l28.146-10.85
	c0.647-0.217,1.078-0.868,1.078-1.52L82.483,31.971z M55.415,22.965l21.029,8.897l-9.394,3.635c-0.095-0.064-0.198-0.12-0.312-0.163
	l-19.723-9.091L55.415,22.965z M51.101,74.937l-21.46-9.44l0.216-31.031l2.993,1.317l18.154,8.127l0.18,19.227L51.101,74.937z
	 M52.808,41.008l-20.034-8.841l-0.437-0.197l10.589-4.132c0.141,0.141,0.314,0.257,0.519,0.335l19.411,8.947L52.808,41.008z
	 M54.552,75.046l-0.215-20.725l0.098-10.477l7.932-3.058l16.773-6.429l0.323,31.031L54.552,75.046z M23.386,10.162l19.519,9.223
	c0.216,0.108,0.431,0.108,0.647,0.108c0.647,0,1.186-0.326,1.51-0.868c0.431-0.869,0-1.736-0.755-2.17L24.788,7.232
	c-0.863-0.433-1.726,0-2.157,0.76C22.2,8.86,22.632,9.728,23.386,10.162z M12.603,13.742l19.519,9.222
	c0.216,0.108,0.431,0.108,0.647,0.108c0.647,0,1.294-0.325,1.51-0.868c0.431-0.868,0-1.736-0.755-2.17l-19.519-9.222
	c-0.863-0.433-1.725,0-2.157,0.76C11.416,12.44,11.848,13.308,12.603,13.742z M22.847,23.616L3.328,14.394
	c-0.863-0.434-1.725,0-2.157,0.759c-0.431,0.868,0,1.736,0.755,2.17l19.519,9.223c0.216,0.108,0.431,0.108,0.647,0.108
	c0.539,0,1.186-0.325,1.51-0.868C24.033,24.918,23.602,24.05,22.847,23.616z M22.739,34.358L3.328,25.244
	c-0.863-0.434-1.725,0-2.157,0.76c-0.431,0.868,0,1.736,0.755,2.17l19.519,9.223c0.216,0.108,0.431,0.108,0.647,0.108
	c0.539,0,1.186-0.325,1.402-0.977C23.926,35.66,23.494,34.792,22.739,34.358z M22.739,45.208L3.328,35.985
	c-0.863-0.433-1.725,0-2.157,0.761c-0.431,0.867,0,1.735,0.755,2.169l19.519,9.332c0.216,0.108,0.431,0.108,0.647,0.108
	c0.539,0,1.186-0.326,1.402-0.976C23.926,46.51,23.494,45.642,22.739,45.208z"/>
</svg>
